<svg xmlns="http://www.w3.org/2000/svg" viewBox="0 0 495.92 495.92"><defs><style>.cls-1{fill:#100f0d;}</style></defs><g id="Capa_2" data-name="Capa 2"><g id="Capa_1-2" data-name="Capa 1"><path class="cls-1" d="M202.42,270.57a23.39,23.39,0,0,0-7.45-5.86,20.82,20.82,0,0,0-9.44-2.15H124.85v53.52h58.68a25.86,25.86,0,0,0,10.16-2,24.59,24.59,0,0,0,8.16-5.58,27.3,27.3,0,0,0,7.44-18.75,29.82,29.82,0,0,0-1.87-10.45A29.41,29.41,0,0,0,202.42,270.57Z"/><path class="cls-1" d="M360.28,235.73q-10.68-9.84-25.93-9.85a37,37,0,0,0-14,2.64,36.38,36.38,0,0,0-11.5,7.34,38.24,38.24,0,0,0-8.19,11.38,40.17,40.17,0,0,0-3.74,14.69h75.44Q371,245.58,360.28,235.73Z"/><path class="cls-1" d="M194.55,224.49q7-6.87,7-18.89,0-11.73-6.45-18.6a20.89,20.89,0,0,0-15.88-6.87H124.85v51.23h52.66A23.46,23.46,0,0,0,194.55,224.49Z"/><path class="cls-1" d="M356,0H139.91A139.91,139.91,0,0,0,0,139.92V356A139.92,139.92,0,0,0,139.91,495.92H356A139.92,139.92,0,0,0,495.92,356V139.92A139.91,139.91,0,0,0,356,0ZM285.73,156H383v24.13H285.73ZM243.92,319.8a47.56,47.56,0,0,1-14.17,16.32,66.13,66.13,0,0,1-20.89,10,90.46,90.46,0,0,1-25.33,3.44H85.35V146.35H194.11a40.14,40.14,0,0,1,19.18,4.58,48,48,0,0,1,14.6,11.88,54.46,54.46,0,0,1,9.3,16.6A55.67,55.67,0,0,1,233,226.07a45.33,45.33,0,0,1-21.75,19.32q17.46,5.15,27.62,18.46t10.16,33.34Q249.07,310.07,243.92,319.8Zm166.56-39.28a29.64,29.64,0,0,1-.69,5.54H297.47a42.94,42.94,0,0,0,4.16,15.25,37.2,37.2,0,0,0,20.52,18.58,39,39,0,0,0,13.86,2.5A42.8,42.8,0,0,0,357,317q9.84-5.4,13.45-14.28l31.89,8.88q-8,16.64-25.65,27.31t-42,10.68a80.73,80.73,0,0,1-31.61-6q-28-11.92-39.52-40.08a76.6,76.6,0,0,1-5.4-28.56,81,81,0,0,1,5.26-29.26q11.29-28.5,39.52-40.63a81,81,0,0,1,32-6.1q17.74,0,31.75,6.1C397.35,218.46,411.81,248.2,410.48,280.52Z"/></g></g></svg>