<svg xmlns="http://www.w3.org/2000/svg" viewBox="0 0 501.64 501.65"><defs><style>.cls-1{fill:#100f0d;}</style></defs><g id="Capa_2" data-name="Capa 2"><g id="Capa_1-2" data-name="Capa 1"><path class="cls-1" d="M322.59,115.25H179.05a63.8,63.8,0,0,0-63.81,63.8V322.6a63.81,63.81,0,0,0,63.81,63.81H322.59A63.81,63.81,0,0,0,386.4,322.6V179.06A63.81,63.81,0,0,0,322.59,115.25Zm-73,223.35a87.78,87.78,0,1,1,89-89A88,88,0,0,1,249.59,338.6Zm88.7-155a23,23,0,1,1,24.43-24.43A23,23,0,0,1,338.29,183.55Z"/><path class="cls-1" d="M249,196.56a54.29,54.29,0,1,0,56.06,56.07A54.45,54.45,0,0,0,249,196.56Z"/><path class="cls-1" d="M361.83,0h-222A139.82,139.82,0,0,0,0,139.81v222A139.82,139.82,0,0,0,139.82,501.65h222A139.81,139.81,0,0,0,501.64,361.83v-222A139.81,139.81,0,0,0,361.83,0ZM419.9,322.6a97.31,97.31,0,0,1-97.31,97.3H179.05a97.3,97.3,0,0,1-97.3-97.3V179.06a97.31,97.31,0,0,1,97.3-97.31H322.6a97.31,97.31,0,0,1,97.3,97.3Z"/></g></g></svg>