<svg xmlns="http://www.w3.org/2000/svg" viewBox="0 0 501.65 501.65"><defs><style>.cls-1{fill:#100f0d;}</style></defs><g id="Capa_2" data-name="Capa 2"><g id="Capa_1-2" data-name="Capa 1"><path class="cls-1" d="M361.17,0H140.48A140.49,140.49,0,0,0,0,140.49V379.17A122.48,122.48,0,0,0,122.48,501.65H361.17A140.49,140.49,0,0,0,501.65,361.17V140.49A140.49,140.49,0,0,0,361.17,0ZM174.1,389.53H116.46V204.24H174.1ZM145.29,178.91a33.4,33.4,0,1,1,33.38-33.41A33.38,33.38,0,0,1,145.29,178.91ZM389.76,389.53H332.24V299.44c0-21.5-.42-49.15-29.94-49.15-30,0-34.54,23.41-34.54,47.58v91.66H210.24V204.24h55.21v25.32h.78c7.68-14.57,26.48-29.93,54.5-29.93,58.26,0,69,38.36,69,88.27Z"/></g></g></svg>