<svg xmlns="http://www.w3.org/2000/svg" viewBox="0 0 501.65 501.65"><defs><style>.cls-1{fill:#100f0d;}</style></defs><g id="Capa_2" data-name="Capa 2"><g id="Capa_1-2" data-name="Capa 1"><polygon class="cls-1" points="220.42 296.43 299.41 250.83 220.42 205.22 220.42 296.43"/><path class="cls-1" d="M360.12,0H141.54A141.54,141.54,0,0,0,0,141.54V360.12A141.54,141.54,0,0,0,141.54,501.65H360.12A141.54,141.54,0,0,0,501.65,360.12V141.54A141.54,141.54,0,0,0,360.12,0ZM396.5,324a38.08,38.08,0,0,1-26.88,26.88c-23.71,6.36-118.79,6.36-118.79,6.36s-95.09,0-118.8-6.36A38.08,38.08,0,0,1,105.15,324c-6.35-23.71-6.35-73.18-6.35-73.18s0-49.48,6.35-73.19A38.09,38.09,0,0,1,132,150.76c23.71-6.36,118.8-6.36,118.8-6.36s95.08,0,118.79,6.36a38.09,38.09,0,0,1,26.88,26.88c6.36,23.71,6.36,73.19,6.36,73.19S402.86,300.3,396.5,324Z"/></g></g></svg>